<?xml version="1.0" encoding="UTF-8"?>
<svg xmlns="http://www.w3.org/2000/svg" xmlns:svg="http://www.w3.org/2000/svg" xmlns:sodipodi="http://sodipodi.sourceforge.net/DTD/sodipodi-0.dtd" xmlns:inkscape="http://www.inkscape.org/namespaces/inkscape" version="1.1" viewBox="0 0 311 277.9">
  <!-- Generator: Adobe Illustrator 29.0.0, SVG Export Plug-In . SVG Version: 2.1.0 Build 186)  -->
  <defs>
    <style>
      .st0 {
        fill: #001374;
      }
    </style>
  </defs>
  <g id="Ebene_1" inkscape:version="1.2.2 (b0a84865, 2022-12-01)" sodipodi:docname="favicon.svg">
    <sodipodi:namedview id="namedview47" bordercolor="#000000" borderopacity="0.25" inkscape:current-layer="Ebene_1" inkscape:cx="88.760593" inkscape:cy="99.629237" inkscape:deskcolor="#d1d1d1" inkscape:pagecheckerboard="0" inkscape:pageopacity="0.0" inkscape:showpageshadow="2" inkscape:window-height="989" inkscape:window-maximized="1" inkscape:window-width="1728" inkscape:window-x="0" inkscape:window-y="38" inkscape:zoom="0.82807018" pagecolor="#ffffff" showgrid="false"/>
    <path id="path6" class="st0" d="M44.2,4.7C40.6,7.9,0,79.2,0,82.4s5.1,11.7,15.2,29c17.4,30.1,28.8,49.5,29.1,49.8s10,.4,21.9.8l21.7.5-8.9,15.5c-4.9,8.5-9,16.2-9,17s10,18.8,22.3,40l22.2,38.5,46.1.3c36.1.2,46.4-.1,47.2-1,.9-1.2,39.8-68.1,42.9-73.8.7-1.4,1.3-3.2,1.3-4s-4-8.5-9-17l-8.9-15.5,16-.5c14.7-.5,16.2-.7,17.7-2.6,1-1.1,11-18.2,22.5-38,14.4-25.1,20.7-37,20.7-39.1,0-3.4-40.5-74.5-44.1-77.6-1.9-1.6-5.7-1.7-46.3-1.7h-44.3l-2,2.2c-1.1,1.3-5.3,7.9-9.2,14.7-4,6.9-7.8,13.3-8.5,14.3-1.1,1.6-2.2.2-9.7-12.9-4.6-8.1-9.2-15.6-10.1-16.5-1.7-1.7-5.1-1.8-46.2-1.8s-44.5,0-46.4,1.7h0ZM142.9,31.5c5.3,9.1,7,13.1,6.6,14.6-.4,1.1-4.9,9.3-10.1,18.2-5.2,8.9-9.4,17-9.4,18s4.1,8.9,9.1,17.4,9.5,16.7,10,18c.8,2.2.1,4.1-4.7,12.7-3.2,5.5-6.8,11.9-8.2,14l-2.4,3.9-3.1-4.9c-5.1-8.2-33.5-58.3-34.1-60.2-.6-1.6,3.9-9.8,30.1-55,5-8.6,6.8-11,7.8-10.2.7.6,4.5,6.7,8.4,13.5h0ZM219.2,88.7c1.7,2,36.8,62.7,36.8,63.7s-5.8.6-13,.6c-11.1,0-13.3-.3-14.8-1.8s-5.7-8.6-10.5-16.9c-4.9-8.4-9.8-15.9-11-16.8-1.8-1.2-6.1-1.5-24-1.5s-22.6-.4-23.7-1c-1.4-.7-8.3-11.9-16.7-27.3-.2-.4,16.6-.7,37.5-.7,34.8,0,38,0,39.4,1.7ZM196,124.5c0,2.3-34.8,61.7-37.7,64.2-2.4,2.3-2.5,2.3-37.6,2.2-19.4,0-35.9-.3-36.9-.7-1.4-.6-.6-2.5,5.4-12.7,3.8-6.6,7.6-12.8,8.5-13.7,1.4-1.6,3.7-1.8,18.8-1.8s17.5-.2,19.5-1.8c1.3-1,6.4-9,11.5-17.8,5.7-9.9,10.1-16.4,11.6-17.1,2.4-1.3,36.9-1.9,36.9-.8h0Z"/>
  </g>
</svg>