<?xml version="1.0" encoding="UTF-8"?>
<svg id="Ebene_1" xmlns="http://www.w3.org/2000/svg" version="1.1" viewBox="0 0 934 523">
  <!-- Generator: Adobe Illustrator 29.0.0, SVG Export Plug-In . SVG Version: 2.1.0 Build 186)  -->
  <defs>
    <style>
      .st0 {
        fill: #fff;
      }
    </style>
  </defs>
  <path class="st0" d="M357.2,7.7c-3.6,3.2-44.2,74.5-44.2,77.7s5.1,11.7,15.2,29c17.4,30.1,28.8,49.5,29.1,49.8s10,.4,21.9.8l21.7.5-8.9,15.5c-4.9,8.5-9,16.2-9,17s10,18.8,22.3,40l22.2,38.5,46.1.3c36.1.2,46.4-.1,47.2-1,.9-1.2,39.8-68.1,42.9-73.8.7-1.4,1.3-3.2,1.3-4s-4-8.5-9-17l-8.9-15.5,16-.5c14.7-.5,16.2-.7,17.7-2.6,1-1.1,11-18.2,22.5-38,14.4-25.1,20.7-37,20.7-39.1,0-3.4-40.5-74.5-44.1-77.6-1.9-1.6-5.7-1.7-46.3-1.7h-44.3l-2,2.2c-1.1,1.3-5.3,7.9-9.2,14.7-4,6.9-7.8,13.3-8.5,14.3-1.1,1.6-2.2.2-9.7-12.9-4.6-8.1-9.2-15.6-10.1-16.5-1.7-1.7-5.1-1.8-46.2-1.8s-44.5,0-46.4,1.7h0ZM455.9,34.5c5.3,9.1,7,13.1,6.6,14.6-.4,1.1-4.9,9.3-10.1,18.2-5.2,8.9-9.4,17-9.4,18s4.1,8.9,9.1,17.4,9.5,16.7,10,18c.8,2.2.1,4.1-4.7,12.7-3.2,5.5-6.8,11.9-8.2,14l-2.4,3.9-3.1-4.9c-5.1-8.2-33.5-58.3-34.1-60.2-.6-1.6,3.9-9.8,30.1-55,5-8.6,6.8-11,7.8-10.2.7.6,4.5,6.7,8.4,13.5h0ZM532.2,91.7c1.7,2,36.8,62.7,36.8,63.7s-5.8.6-13,.6c-11.1,0-13.3-.3-14.8-1.8s-5.7-8.6-10.5-16.9c-4.9-8.4-9.8-15.9-11-16.8-1.8-1.2-6.1-1.5-24-1.5s-22.6-.4-23.7-1c-1.4-.7-8.3-11.9-16.7-27.3-.2-.4,16.6-.7,37.5-.7,34.8,0,38,0,39.4,1.7ZM509,127.5c0,2.3-34.8,61.7-37.7,64.2-2.4,2.3-2.5,2.3-37.6,2.2-19.4,0-35.9-.3-36.9-.7-1.4-.6-.6-2.5,5.4-12.7,3.8-6.6,7.6-12.8,8.5-13.7,1.4-1.6,3.7-1.8,18.8-1.8s17.5-.2,19.5-1.8c1.3-1,6.4-9,11.5-17.8,5.7-9.9,10.1-16.4,11.6-17.1,2.4-1.3,36.9-1.9,36.9-.8h0Z"/>
  <path class="st0" d="M13,378.5v64.5h9v-129h-9v64.5Z"/>
  <path class="st0" d="M845,378.5v64.5h8.9l.3-30.3.3-30.2,2.7-5.2c8.3-15.6,25.9-22,43-15.4,4.9,1.9,10.6,8,13,13.9,2.1,5.4,2.3,7.3,2.6,36.4l.4,30.8h7.9l-.3-32.3c-.3-30.7-.4-32.5-2.6-37.8-5.9-14.8-20.9-23.2-38.3-21.6-10.2.9-15.7,3.4-23.1,10.8l-6.8,6.7v-54.8h-8v64.5h0Z"/>
  <path class="st0" d="M582.7,325.7c-.4.3-.7,6.4-.7,13.5v12.8h-20.1l.3,3.7.3,3.8,8.5.2c4.7.1,9,.2,9.7.2.9.1,1.3,8.7,1.5,34.3l.3,34.3,2.5,4.5c1.4,2.4,4.5,5.8,6.8,7.5,4.1,2.8,4.9,3,13.5,3s10.6-.5,13.9-1.8c4.5-1.8,4.6-1.9,3.6-4.8-1.3-3.9-2-4.1-6.2-2.4-5.2,2.2-15.3,2-19.3-.5-6.6-4-6.8-4.9-7.1-41.3l-.3-32.7h2.3c1.3-.1,8.3-.1,15.6-.1h13.2v-7.9h-31v-27h-3.3c-1.9,0-3.7.3-4,.7h0Z"/>
  <path class="st0" d="M84.9,351.1c-10,1.1-20.5,7.1-25,14.4l-1.9,3v-16.5h-9v91h8.9l.3-30.3c.3-33.9.5-35,8.3-43.5,12.3-13.7,39.3-13.1,49.7.9,5.9,7.9,6.2,9.9,6.6,42.6l.4,30.3h7.9l-.3-31.8c-.3-30.3-.4-32-2.6-37.4-6.4-16-23.3-24.9-43.3-22.7h0Z"/>
  <path class="st0" d="M181.6,353.4c-6.8,2.9-12.2,6.9-15.3,11.6l-2.3,3.3v-16.3h-9v91h9v-28.3c0-23.7.3-29.1,1.7-33.3,4.2-12.7,14.1-20.7,27.4-22.1,11.5-1.2,23.4,3.3,29.2,10.9,5.7,7.4,6,9.8,6.5,42l.4,29.8h7.8v-29.3c0-31.5-.6-35.9-5.4-44-3.4-5.8-9.7-11.4-16.5-14.5-4.8-2.3-7.2-2.7-16.6-3-9.9-.2-11.6,0-16.9,2.2h0Z"/>
  <path class="st0" d="M289.5,352.4c-17.8,5.7-29,18.8-31.7,37.3-3,20.7,6,40.6,22.1,48.7,22.8,11.6,50.7,4.7,62.8-15.5,10.1-16.9,7.8-42.9-4.9-57.5-4.4-5-13.8-11-20.3-12.9-6.4-1.8-22.3-1.9-28-.1ZM320.2,362.8c7.6,3.7,13,9.2,16.5,16.8,7.1,15.6,4.5,34.2-6.3,45.1-18.2,18.1-50,13.2-61.1-9.5-3.5-7.2-4.4-21.7-1.9-30.3,3.1-11,12.8-21,23.5-24.4,2.9-.9,7.8-1.4,13.6-1.2,7.9.2,9.9.6,15.7,3.5h0Z"/>
  <path class="st0" d="M493.5,352c-9.9,2.1-17.4,6.2-24.8,13.6-17.1,17.2-15.9,50.3,2.5,67,2.2,2,7.5,5.2,11.6,7.2,6.7,3.2,8.8,3.7,16.8,4,15.2.7,24.9-3.2,34.9-13.9l5.5-6v19.1h9v-91h-9v10.2c0,8.4-.3,9.9-1.3,8.4-8.6-14.1-28.1-22.1-45.2-18.6h0ZM515.6,361.7c9.9,3.3,16.7,9.5,21.1,18.9,8.3,18.1,2.5,39.3-13.5,49.9-5.5,3.6-15.5,5.8-23.2,5.2-22.1-1.8-36.4-19-34.8-41.7,1.1-14.8,11.5-28.3,25.1-32.6,6.1-1.9,19.4-1.7,25.3.3h0Z"/>
  <path class="st0" d="M671.6,352.1c-5.9,1.4-16.8,7.5-20.9,11.7-8.1,8.4-13.7,22.1-13.7,33.4s2.7,17.6,5.4,23.3c3.1,6.3,11.6,14.9,17.8,18.1,18.5,9.4,45.1,6,58.3-7.6l3.8-3.9-2.9-2.4-2.9-2.5-3.3,2.9c-15.2,13.4-41,14-55.1,1.3-5.3-4.8-10.5-13.9-11.7-20.7-.5-3.2-.4-3.7,1.2-3.7,1.1-.1,19.6,0,41.2,0h39.2c0,.1,0-7.7,0-7.7,0-21.9-10.9-36.5-31.1-41.8-6-1.6-19.2-1.8-25.3-.4h0ZM701.1,362.2c10.4,4.8,17.4,14.7,18.6,26.3l.6,5.5h-74.6l.7-4.3c.9-5.3,5.6-15.4,9-18.9,4.2-4.4,9.2-7.8,14.3-9.9,7.3-2.9,23.7-2.3,31.4,1.3Z"/>
  <path class="st0" d="M785.7,352.1c-12.3,1.4-25.5,9.2-31.7,19-6.7,10.3-9,26.9-5.5,40,4.7,18.3,19.9,30.5,40.5,32.4,12.1,1.1,28.4-4,34.9-10.9l2.1-2.2-2.9-2.8-2.9-2.8-4.9,3.6c-8.7,6.2-18,8.3-28.9,6.6-18.6-3-29.7-15.5-31.1-35-1.2-16.8,6.7-30.5,21.4-37.3,4.1-1.9,6.5-2.2,16.3-2.1,12.4,0,16.5,1.2,23.9,6.8l3.5,2.6,2.8-2.7,2.8-2.7-2.7-2.3c-4.4-3.6-16.3-9.1-21.3-9.8-8.5-1.1-9.5-1.2-16.3-.4h0Z"/>
  <path class="st0" d="M361.7,355.7c4.2,10.2,28,67.1,32,76.5l4.5,10.8h4.7c4.2,0,4.9-.3,6-2.8,1-2.1,27.4-65,35.4-84.5l1.6-3.7h-9.5l-16.4,40c-9,22-16.7,40-17,40s-2.2-3.9-4.2-8.8c-1.9-4.8-9.3-22.8-16.3-40l-12.9-31.2h-9.5l1.6,3.7h0Z"/>
  <path class="st0" d="M324.3,478c-3.9,2.3-5.3,4.8-5.3,9.2s2.7,7.2,11.6,11.5c5.4,2.6,7.5,4.2,8.2,6.2,2.8,7.9-8.4,12.1-16.7,6.2-2.5-1.8-3-1.9-4.1-.6-1.6,1.9-.5,3.4,4.4,5.6,6.2,2.8,13.7,2.5,17.5-.6,4.2-3.6,5.6-8.3,3.7-12.9-1.3-3.1-2.8-4.2-10.1-7.7-6.3-3-8.7-4.7-9.1-6.4-1-4.2,0-5.9,4.2-7.4,3.8-1.3,4.4-1.3,8.2.7,3.6,1.8,4.2,1.9,5.3.6,1.4-1.8.7-2.5-4.8-5-4.5-1.9-9.2-1.8-13,.6h0Z"/>
  <path class="st0" d="M361.5,477.4c-6.7,3-10.5,10.2-10.5,19.4,0,13.8,7.3,21.9,18.7,21,9.5-.8,15.2-8.7,15.3-21.3,0-8.3-1.8-12.5-7.2-16.8-4.4-3.5-11.6-4.5-16.3-2.3h0ZM372.6,481.5c6.4,2.7,9.7,16.2,6,25-2.8,6.6-12.3,9.5-17.3,5.3-2.9-2.4-5.3-9.1-5.3-15.1,0-10,3.9-15.3,12.3-16.6.4,0,2.3.6,4.3,1.4h0Z"/>
  <path class="st0" d="M521,477.8c-10.5,5.2-13.5,24.5-5.3,34.3,3.3,3.9,7.9,5.9,13.5,5.9s10-2.8,13.4-8.6c2.3-4,2.8-5.8,2.8-12.3s-.4-8.4-2.4-12.1c-4.3-7.8-14.3-11.1-22-7.2ZM535.7,483.3c6.4,5.8,6.1,22-.5,28-5.1,4.6-13.5,2.6-16.8-4-2.7-5.6-2.6-17.2.2-21,4.5-6.2,12.2-7.6,17.1-3Z"/>
  <path class="st0" d="M601.5,477c-3,1.2-6.2,5.1-6.9,8.5-1,4.8,2.1,8.6,10,12.4,8.6,4.1,10.4,5.7,10.4,9.2,0,6.9-10.5,9.2-17.3,3.9-2.1-1.7-2.6-1.8-3.7-.5-1.6,1.9-.5,3.4,4.4,5.6,11,5,21.6,0,21.6-10.4s-3.4-7.6-12.2-11.5c-3.6-1.6-7.1-4-7.8-5.1-3.6-6.8,7-11.3,14.7-6.3,2,1.2,2.3,1.2,2.9-.1.8-2.2,0-3.2-4-5.1-3.6-1.7-8.8-2-12.1-.6h0Z"/>
  <path class="st0" d="M395,497.5v20.5h22v-2.5c0-2.5-.1-2.5-9-2.5h-9v-18c0-17.3-.1-18-2-18s-2,.7-2,20.5Z"/>
  <path class="st0" d="M423,491.7c0,12.2.4,15.5,1.9,18.9,2.2,4.7,6.8,7.4,13,7.4s8.7-1.7,11.4-5.9c2-3.2,2.2-5.1,2.5-19.4l.4-15.7h-5.2v15.5c0,15.1-.1,15.7-2.4,18-5,5-11.9,4.3-14.8-1.6-1.5-2.8-1.8-6.1-1.8-17.7v-14.2h-5v14.7h0Z"/>
  <path class="st0" d="M460,479c0,1.8.7,2,6,2h6v37h5v-37h6c5.3,0,6-.2,6-2s-.7-2-14.5-2-14.5.1-14.5,2Z"/>
  <path class="st0" d="M497,497.5v20.5h5v-41h-5v20.5Z"/>
  <path class="st0" d="M555,497.6v20.5l2.3-.3c2.2-.3,2.2-.4,2-17.3l-.3-17,3.2,5.5c15.7,27.4,16.4,28.5,19.1,28.8l2.7.3v-41.1h-5.1l.3,16.6c.4,19.4,1.2,19.5-10.7-2-7.3-13.3-8.2-14.6-10.7-14.6h-2.8v20.6h0Z"/>
</svg>